<svg version="1.1" xmlns="http://www.w3.org/2000/svg" viewBox="0 0 876.7929868014658 133.42048410692314" width="1753.5859736029315" height="266.8409682138463" filter="invert(93%) hue-rotate(180deg)">
  <!-- svg-source:excalidraw -->
  
  <defs>
    <style class="style-fonts">
      @font-face {
        font-family: "Virgil";
        src: url("https://excalidraw.com/Virgil.woff2");
      }
      @font-face {
        font-family: "Cascadia";
        src: url("https://excalidraw.com/Cascadia.woff2");
      }
      @font-face {
        font-family: "Assistant";
        src: url("https://excalidraw.com/Assistant-Regular.woff2");
      }
    </style>
    
  </defs>
  <g transform="translate(37.95547994625622 21.723883689677677) rotate(0 82.37402209026709 41.07204741631813)"><text x="0" y="57.56658165871138" font-family="Virgil, Segoe UI Emoji" font-size="65.71527586610888px" fill="#f08c00" text-anchor="start" style="white-space: pre;" direction="ltr" dominant-baseline="alphabetic">Write</text></g><g transform="translate(364.4862493558112 19.88146681800208) rotate(0 59.303260803222656 41.07204741631813)"><text x="0" y="57.56658165871138" font-family="Virgil, Segoe UI Emoji" font-size="65.71527586610888px" fill="#f08c00" text-anchor="start" style="white-space: pre;" direction="ltr" dominant-baseline="alphabetic">add</text></g><g transform="translate(646.5509179749988 15.44421117341335) rotate(0 102.04761505126953 41.07204741631813)"><text x="0" y="57.56658165871138" font-family="Virgil, Segoe UI Emoji" font-size="65.71527586610888px" fill="#f08c00" text-anchor="start" style="white-space: pre;" direction="ltr" dominant-baseline="alphabetic">commit</text></g><g stroke-linecap="round" transform="translate(10 10) rotate(0 109.76615395416047 56.71024205346157)"><path d="M28.36 0 C86.84 -4.87, 142.81 -3.17, 191.18 0 M28.36 0 C91.69 -3.96, 157.64 -1.12, 191.18 0 M191.18 0 C206.33 1.66, 220.68 11, 219.53 28.36 M191.18 0 C214.05 1.93, 216.32 8.81, 219.53 28.36 M219.53 28.36 C223.34 49.32, 219.26 70.24, 219.53 85.07 M219.53 28.36 C219.94 46.45, 217.43 65.27, 219.53 85.07 M219.53 85.07 C220.17 105.7, 213.46 115.65, 191.18 113.42 M219.53 85.07 C218.95 103.18, 208.73 109.61, 191.18 113.42 M191.18 113.42 C128.95 111.49, 65.89 117.21, 28.36 113.42 M191.18 113.42 C139.37 111.07, 88.89 110.68, 28.36 113.42 M28.36 113.42 C12.37 111.9, 1.92 105.4, 0 85.07 M28.36 113.42 C10.06 116.21, -0.4 104.22, 0 85.07 M0 85.07 C-1.4 72.95, -2.82 54.92, 0 28.36 M0 85.07 C-1.92 64.56, -2.49 44.67, 0 28.36 M0 28.36 C2.93 6.1, 5.81 1.28, 28.36 0 M0 28.36 C-2.7 8.03, 7.21 4.2, 28.36 0" stroke="#f08c00" stroke-width="4" fill="none"></path></g><g stroke-linecap="round" transform="translate(339.72754570345705 10.630407538873442) rotate(0 84.7776125422863 48.13466595207183)"><path d="M24.07 0 C60.71 1.62, 98.41 0.23, 145.49 0 M24.07 0 C62.81 -1.37, 99.74 -0.9, 145.49 0 M145.49 0 C158.05 -3.26, 170.89 9.71, 169.56 24.07 M145.49 0 C158.56 -0.5, 169.44 4.9, 169.56 24.07 M169.56 24.07 C172.27 38.21, 168.41 50, 169.56 72.2 M169.56 24.07 C168.17 40.65, 169.29 58.1, 169.56 72.2 M169.56 72.2 C168.91 86.34, 160.3 99.5, 145.49 96.27 M169.56 72.2 C168.15 84.98, 164.51 97.25, 145.49 96.27 M145.49 96.27 C101.12 92.86, 60.22 93.86, 24.07 96.27 M145.49 96.27 C98.99 96.12, 50.08 98.35, 24.07 96.27 M24.07 96.27 C8.85 99.58, -1.96 87.59, 0 72.2 M24.07 96.27 C5.96 94.4, -0.19 88.45, 0 72.2 M0 72.2 C0.22 61.3, 3.38 53.18, 0 24.07 M0 72.2 C0.88 57.44, -1.22 40.88, 0 24.07 M0 24.07 C0.69 7.13, 8.95 -0.16, 24.07 0 M0 24.07 C-0.89 8.46, 4.21 0.06, 24.07 0" stroke="#f08c00" stroke-width="4" fill="none"></path></g><g stroke-linecap="round" transform="translate(624.3057101873155 11.089994970439875) rotate(0 121.24363830707512 46.060421791906265)"><path d="M23.03 0 C100.92 -1.67, 168.25 0.25, 219.46 0 M23.03 0 C88.43 -4.09, 153.3 -5.38, 219.46 0 M219.46 0 C237.92 2.88, 244.13 6.66, 242.49 23.03 M219.46 0 C233.48 -0.4, 246.17 4.12, 242.49 23.03 M242.49 23.03 C240.17 39.9, 239.13 62.62, 242.49 69.09 M242.49 23.03 C240.78 39.21, 240.06 53.3, 242.49 69.09 M242.49 69.09 C239.11 84.99, 231.52 88.98, 219.46 92.12 M242.49 69.09 C241.54 83.33, 233.73 87.97, 219.46 92.12 M219.46 92.12 C151.86 90.81, 77.75 90.43, 23.03 92.12 M219.46 92.12 C160.92 94.43, 105.25 95.6, 23.03 92.12 M23.03 92.12 C7.29 90.79, -2.11 87.16, 0 69.09 M23.03 92.12 C5.51 88.3, 3.03 82.67, 0 69.09 M0 69.09 C2.57 59.96, -1.88 45.11, 0 23.03 M0 69.09 C0.62 59.09, 1.03 44.28, 0 23.03 M0 23.03 C2.76 8.45, 11.17 -2.66, 23.03 0 M0 23.03 C-2.49 5.83, 7.92 1.93, 23.03 0" stroke="#f08c00" stroke-width="4" fill="none"></path></g><g stroke-linecap="round"><g transform="translate(233.4693046672228 56.886052310561354) rotate(0 54.825120154958086 -2.625342363503478)"><path d="M2.03 -0.1 C20.37 -0.56, 90.69 -4.17, 108.92 -4.97 M-0.31 -2.62 C17.69 -2.37, 87.81 -1.35, 106.28 -1.19" stroke="#aa44ff" stroke-width="4" fill="none"></path></g><g transform="translate(233.4693046672228 56.886052310561354) rotate(0 54.825120154958086 -2.625342363503478)"><path d="M82.62 6.56 C89.08 6, 95.23 4.06, 105.76 -3.04 M83.57 7.43 C90.75 4.15, 99.36 1.83, 105.58 -1.34" stroke="#aa44ff" stroke-width="4" fill="none"></path></g><g transform="translate(233.4693046672228 56.886052310561354) rotate(0 54.825120154958086 -2.625342363503478)"><path d="M82.83 -10.54 C89.1 -6.66, 95.2 -4.16, 105.76 -3.04 M83.78 -9.67 C91 -6.78, 99.53 -2.94, 105.58 -1.34" stroke="#aa44ff" stroke-width="4" fill="none"></path></g></g><mask></mask><g stroke-linecap="round"><g transform="translate(517.5919488649274 47.617027916410734) rotate(0 51.35787869115211 -0.5470310579262332)"><path d="M-0.91 -2.44 C16.13 -2.95, 84.2 -2.72, 101.15 -2.26 M3.78 2.4 C21.85 2.21, 89.58 1.87, 106.7 0.74" stroke="#aa44ff" stroke-width="4" fill="none"></path></g><g transform="translate(517.5919488649274 47.617027916410734) rotate(0 51.35787869115211 -0.5470310579262332)"><path d="M81.75 8.9 C88.69 6.28, 96.6 5.17, 106.85 2.18 M84.24 9.98 C91.93 6.33, 99.36 3.62, 107.09 0.4" stroke="#aa44ff" stroke-width="4" fill="none"></path></g><g transform="translate(517.5919488649274 47.617027916410734) rotate(0 51.35787869115211 -0.5470310579262332)"><path d="M81.21 -8.19 C88.34 -6.35, 96.39 -3, 106.85 2.18 M83.7 -7.11 C91.55 -4.94, 99.16 -1.83, 107.09 0.4" stroke="#aa44ff" stroke-width="4" fill="none"></path></g></g><mask></mask></svg>