<svg version="1.1" xmlns="http://www.w3.org/2000/svg" viewBox="0 0 846.9423781204177 275.89184504428613" width="1693.8847562408355" height="551.7836900885723" filter="invert(93%) hue-rotate(180deg)">
  <!-- svg-source:excalidraw -->
  
  <defs>
    <style class="style-fonts">
      @font-face {
        font-family: "Virgil";
        src: url("https://excalidraw.com/Virgil.woff2");
      }
      @font-face {
        font-family: "Cascadia";
        src: url("https://excalidraw.com/Cascadia.woff2");
      }
      @font-face {
        font-family: "Assistant";
        src: url("https://excalidraw.com/Assistant-Regular.woff2");
      }
    </style>
    
  </defs>
  <g stroke-linecap="round" transform="translate(10 53.9129690143227) rotate(0 11.09720625688442 11.09720625688442)"><path d="M13.69 1.18 C16 1.61, 17.92 3.33, 19.46 5.15 C21.01 6.97, 22.98 9.72, 22.98 12.1 C22.98 14.48, 21.29 17.59, 19.45 19.41 C17.61 21.24, 14.28 23.05, 11.93 23.07 C9.57 23.08, 7.38 20.9, 5.34 19.52 C3.31 18.13, 0.4 16.97, -0.29 14.75 C-0.99 12.52, 0.17 8.36, 1.18 6.19 C2.19 4.03, 3.22 2.58, 5.75 1.75 C8.29 0.92, 14.52 0.94, 16.41 1.23 C18.31 1.53, 17.16 3.32, 17.12 3.51 M14.86 0.76 C16.68 1.15, 18.48 3.04, 19.69 4.95 C20.9 6.87, 22.42 9.74, 22.1 12.27 C21.78 14.79, 19.52 18.51, 17.77 20.13 C16.02 21.75, 13.68 22.22, 11.61 21.99 C9.54 21.76, 7.37 20.02, 5.36 18.76 C3.34 17.5, 0.19 16.8, -0.5 14.41 C-1.2 12.02, -0.39 6.93, 1.17 4.41 C2.72 1.89, 6.35 0.02, 8.81 -0.69 C11.28 -1.4, 14.75 0.09, 15.97 0.15 C17.19 0.21, 16.34 -0.58, 16.14 -0.31" stroke="#f08c00" stroke-width="4" fill="none"></path></g><g stroke-linecap="round" transform="translate(130.7291444124462 50.63891695759139) rotate(0 11.09720625688442 11.09720625688442)"><path d="M15.84 0.17 C17.91 0.75, 19.71 2.85, 20.61 4.94 C21.5 7.04, 21.52 10.33, 21.19 12.72 C20.86 15.11, 20.34 17.7, 18.61 19.29 C16.89 20.88, 13.18 22.34, 10.85 22.25 C8.51 22.15, 6.33 20.38, 4.63 18.72 C2.93 17.05, 1.32 14.61, 0.64 12.25 C-0.04 9.89, -0.49 6.53, 0.58 4.55 C1.64 2.57, 4.56 1.03, 7.05 0.37 C9.54 -0.3, 13.8 0.37, 15.51 0.57 C17.23 0.77, 17.37 1.39, 17.34 1.56 M14.38 2.34 C16.4 3.53, 18.7 5.84, 20.11 7.69 C21.52 9.54, 23.12 11.6, 22.83 13.43 C22.54 15.27, 20.5 17.03, 18.36 18.7 C16.23 20.38, 12.73 23.44, 10.02 23.51 C7.31 23.58, 3.98 21.28, 2.11 19.13 C0.25 16.98, -1.35 12.95, -1.17 10.58 C-0.99 8.22, 1.69 6.39, 3.17 4.94 C4.66 3.48, 5.5 2.34, 7.75 1.85 C9.99 1.37, 15.47 1.98, 16.65 2 C17.84 2.02, 15.11 1.74, 14.86 1.97" stroke="#f08c00" stroke-width="4" fill="none"></path></g><g stroke-linecap="round"><g transform="translate(38.02263188929237 67.03764725913334) rotate(0 44.386791454832064 1.4072323125828916)"><path d="M1.67 0.64 C16.57 1.44, 72.75 3.15, 87.65 3.92 M-0.86 -1.48 C13.72 -1.46, 69.58 -0.92, 84.8 -0.49" stroke="#f08c00" stroke-width="4" fill="none"></path></g></g><mask></mask><g stroke-linecap="round"><g transform="translate(235.4988102278553 186.33922363193597) rotate(0 -44.0065133588015 -52.05336055661974)"><path d="M-2.09 0.73 C-16.63 -16.8, -74.81 -89.07, -89.03 -106.5 M1.98 -1.35 C-12.87 -18.48, -76.68 -87.62, -91.82 -104.17" stroke="#2f9e44" stroke-width="4" fill="none"></path></g></g><mask></mask><g stroke-linecap="round" transform="translate(237.49577862519072 182.25174249278643) rotate(0 11.09720625688442 11.09720625688442)"><path d="M5.46 1.8 C7.38 0.6, 10.21 -0.91, 12.56 -0.62 C14.91 -0.33, 17.83 1.64, 19.54 3.55 C21.24 5.45, 22.88 8.28, 22.77 10.81 C22.67 13.34, 20.69 16.89, 18.91 18.72 C17.12 20.55, 14.23 21.36, 12.06 21.8 C9.9 22.23, 7.77 22.55, 5.9 21.34 C4.02 20.13, 1.62 17.03, 0.82 14.55 C0.01 12.08, 0.05 8.78, 1.06 6.5 C2.07 4.21, 6.02 1.82, 6.9 0.85 C7.77 -0.13, 6.3 0.34, 6.29 0.64 M11.06 -1.44 C13.35 -1.33, 15.8 1.09, 17.66 2.92 C19.52 4.75, 21.82 7.24, 22.22 9.52 C22.62 11.8, 21.13 14.5, 20.05 16.57 C18.97 18.65, 18.2 20.91, 15.76 21.95 C13.32 22.99, 7.59 24.03, 5.4 22.83 C3.21 21.62, 3.28 17.29, 2.62 14.73 C1.97 12.18, 0.97 9.76, 1.46 7.5 C1.95 5.23, 4.06 2.35, 5.58 1.16 C7.1 -0.03, 9.79 0.68, 10.56 0.36 C11.33 0.03, 10.11 -1.03, 10.21 -0.76" stroke="#2f9e44" stroke-width="4" fill="none"></path></g><g stroke-linecap="round"><g transform="translate(265.6241562951982 194.80702037990523) rotate(0 81.72928705592585 -0.5755010758111894)"><path d="M1.8 2.46 C28.79 2.12, 135.05 -0.19, 162.44 -1.02 M-0.66 1.32 C25.82 1.39, 131.9 2.93, 159.65 2.68" stroke="#2f9e44" stroke-width="4" fill="none"></path></g></g><mask></mask><g stroke-linecap="round" transform="translate(434.94348694586915 182.71132992435196) rotate(0 11.09720625688442 11.09720625688442)"><path d="M10.53 0.5 C12.72 0.4, 16.25 2.14, 18.2 3.54 C20.15 4.95, 21.95 6.82, 22.24 8.91 C22.53 11, 21.29 13.96, 19.94 16.08 C18.59 18.21, 16.26 20.74, 14.12 21.68 C11.98 22.63, 9.16 22.78, 7.09 21.75 C5.02 20.72, 2.88 17.8, 1.68 15.49 C0.47 13.18, -0.5 9.92, -0.13 7.91 C0.24 5.89, 1.75 4.58, 3.9 3.39 C6.04 2.21, 11.25 1.35, 12.74 0.8 C14.23 0.25, 13.12 0.08, 12.84 0.1 M9.64 -0.83 C12.21 -1.3, 15.59 0.14, 17.38 1.4 C19.17 2.66, 19.72 4.59, 20.39 6.71 C21.05 8.83, 21.96 11.75, 21.38 14.1 C20.8 16.46, 18.72 19.6, 16.91 20.85 C15.11 22.09, 12.72 21.86, 10.55 21.56 C8.37 21.27, 5.81 20.46, 3.88 19.07 C1.95 17.68, -0.52 15.79, -1.02 13.23 C-1.51 10.67, -0.77 5.77, 0.92 3.73 C2.61 1.68, 7.89 1.52, 9.13 0.98 C10.37 0.43, 8.54 0.47, 8.37 0.46" stroke="#2f9e44" stroke-width="4" fill="none"></path></g><g stroke-linecap="round"><g transform="translate(459.98896839351346 190.7480092586402) rotate(0 81.72928705592585 -0.5755010758111894)"><path d="M-0.4 0.11 C27.12 -0.03, 136.34 -2.77, 164.04 -3.11 M-4.06 -2.3 C23.23 -1.93, 133.9 -1.06, 162.12 -0.54" stroke="#2f9e44" stroke-width="4" fill="none"></path></g></g><mask></mask><g stroke-linecap="round" transform="translate(627.9376710403103 178.9004146732259) rotate(0 11.09720625688442 11.09720625688442)"><path d="M13.22 -0.15 C15.47 -0.03, 17.43 1.44, 19.02 3.18 C20.61 4.91, 22.84 7.89, 22.76 10.26 C22.67 12.63, 20.08 15.39, 18.52 17.41 C16.95 19.42, 15.55 21.9, 13.37 22.34 C11.19 22.77, 7.47 21.44, 5.44 20.03 C3.41 18.61, 2.02 15.92, 1.18 13.83 C0.34 11.75, -0.39 9.45, 0.39 7.52 C1.17 5.59, 3.64 3.55, 5.89 2.25 C8.13 0.95, 12.17 -0.3, 13.83 -0.27 C15.49 -0.24, 15.62 2.17, 15.84 2.44 M8.63 1.92 C10.73 1.27, 13.7 -0.04, 15.81 0.63 C17.91 1.31, 20.22 4.13, 21.24 5.99 C22.26 7.85, 22.29 9.47, 21.94 11.79 C21.59 14.1, 21.11 18.2, 19.14 19.88 C17.17 21.56, 12.85 21.92, 10.11 21.84 C7.37 21.77, 4.5 20.72, 2.71 19.45 C0.91 18.18, -0.52 16.64, -0.67 14.22 C-0.81 11.81, 0.36 7.45, 1.83 4.94 C3.29 2.42, 7.01 -0.16, 8.11 -0.86 C9.21 -1.56, 8.33 0.22, 8.45 0.74" stroke="#2f9e44" stroke-width="4" fill="none"></path></g><g transform="translate(565.5964661638122 229.58518079867827) rotate(0 47.271214800259486 18.15333212280393)"><text x="0" y="25.443710303321993" font-family="Virgil, Segoe UI Emoji" font-size="29.045331396486297px" fill="#2f9e44" text-anchor="start" style="white-space: pre;" direction="ltr" dominant-baseline="alphabetic">bug-fix</text></g><g transform="translate(61.70155247847333 10) rotate(0 49.150177001953125 18.15333212280393)"><text x="0" y="25.443710303321993" font-family="Virgil, Segoe UI Emoji" font-size="29.045331396486297px" fill="#f08c00" text-anchor="start" style="white-space: pre;" direction="ltr" dominant-baseline="alphabetic">master</text></g><g stroke-linecap="round"><g transform="translate(152.9398255078636 62.55565301501156) rotate(0 283.40479303247093 8.020410752639236)"><path d="M2.12 -1.3 C96.44 1.72, 469.91 14.76, 564.18 17.4 M-0.17 4.17 C95.13 6.42, 474.72 11.01, 569.16 13.12" stroke="#f08c00" stroke-width="4" fill="none"></path></g></g><mask></mask><g stroke-linecap="round"><g transform="translate(650.664879603064 187.39668143907875) rotate(0 36.62871158127223 -46.59931855900868)"><path d="M-0.22 0.5 C12.35 -15.59, 61.39 -78.29, 73.36 -94.06 M-3.78 -1.69 C8.61 -16.16, 57.63 -75.93, 71.18 -90.89" stroke="#2f9e44" stroke-width="4" fill="none"></path></g></g><mask></mask><g stroke-linecap="round" transform="translate(725.0733049172295 68.20491799240335) rotate(0 11.09720625688442 11.09720625688442)"><path d="M7.57 0 C9.49 -0.8, 12.51 0.39, 14.64 1.15 C16.76 1.91, 19.08 2.49, 20.31 4.55 C21.53 6.6, 22.19 11.15, 21.99 13.47 C21.79 15.8, 20.81 17.12, 19.12 18.52 C17.44 19.92, 14.29 21.71, 11.87 21.88 C9.46 22.05, 6.48 21.09, 4.65 19.54 C2.82 17.99, 1.37 14.94, 0.89 12.57 C0.4 10.2, 0.46 7.36, 1.77 5.31 C3.08 3.27, 7.49 1.02, 8.74 0.31 C10 -0.4, 9.44 0.98, 9.31 1.07 M13.06 0.53 C15.29 0.45, 17.91 1.16, 19.26 3.01 C20.6 4.87, 21.16 9.2, 21.13 11.67 C21.09 14.15, 20.55 16.04, 19.05 17.87 C17.55 19.7, 14.54 22.18, 12.14 22.67 C9.73 23.16, 6.74 22.28, 4.61 20.83 C2.48 19.39, 0.06 16.17, -0.67 14 C-1.39 11.83, -0.93 9.81, 0.25 7.82 C1.42 5.82, 4.26 3.11, 6.39 2.02 C8.52 0.93, 11.85 1.37, 13.03 1.28 C14.22 1.19, 13.51 1.28, 13.5 1.48" stroke="#f08c00" stroke-width="4" fill="none"></path></g><g transform="translate(741.0165149326172 25.93507572456474) rotate(0 47.962931593900294 22.56008417680232)"><text x="0" y="31.62021398220643" font-family="Virgil, Segoe UI Emoji" font-size="36.096134682884056px" fill="#f08c00" text-anchor="start" style="white-space: pre;" direction="ltr" dominant-baseline="alphabetic">merge</text></g></svg>