<svg version="1.1" xmlns="http://www.w3.org/2000/svg" viewBox="0 0 1123.4616704897685 1079.0987017509206" width="2246.923340979537" height="2158.197403501841" filter="invert(93%) hue-rotate(180deg)">
  <!-- svg-source:excalidraw -->
  
  <defs>
    <style class="style-fonts">
      @font-face {
        font-family: "Virgil";
        src: url("https://excalidraw.com/Virgil.woff2");
      }
      @font-face {
        font-family: "Cascadia";
        src: url("https://excalidraw.com/Cascadia.woff2");
      }
      @font-face {
        font-family: "Assistant";
        src: url("https://excalidraw.com/Assistant-Regular.woff2");
      }
    </style>
    
  </defs>
  <g stroke-linecap="round" transform="translate(10 10) rotate(0 551.7308352448842 364.7664143707757)"><path d="M32 0 C359.88 -5.79, 686.9 -6.43, 1071.46 0 M32 0 C316.69 -0.28, 602.99 -1.05, 1071.46 0 M1071.46 0 C1092.15 3.54, 1104.76 11.96, 1103.46 32 M1071.46 0 C1089.77 1.59, 1106.52 12.72, 1103.46 32 M1103.46 32 C1100.32 256.68, 1099.76 478.81, 1103.46 697.53 M1103.46 32 C1105.2 174.52, 1105 316.94, 1103.46 697.53 M1103.46 697.53 C1105.86 715.22, 1089.94 725.73, 1071.46 729.53 M1103.46 697.53 C1104.23 721.07, 1090.63 733.61, 1071.46 729.53 M1071.46 729.53 C821.53 727.24, 572.78 729.85, 32 729.53 M1071.46 729.53 C679.54 735.2, 287.49 735.05, 32 729.53 M32 729.53 C13.23 728.13, -2.24 720.64, 0 697.53 M32 729.53 C14.57 728.07, -2.37 719.2, 0 697.53 M0 697.53 C-4.08 555.82, -4.55 413.3, 0 32 M0 697.53 C-3.45 473.35, -2.85 249.55, 0 32 M0 32 C-1.57 13.81, 12.39 -3.96, 32 0 M0 32 C4.47 9.74, 10.63 1.18, 32 0" stroke="#1e1e1e" stroke-width="4" fill="none"></path></g><g stroke-linecap="round" transform="translate(74.3660523265205 75.97796084662696) rotate(0 59.05523793922623 60.7986442596557)"><path d="M29.53 0 C44.14 -6, 73.02 -5.02, 88.58 0 C113.84 -1.56, 119.49 5.16, 118.11 29.53 C117.12 51.44, 113.29 80.51, 118.11 92.07 C122.06 106.17, 103.36 122.02, 88.58 121.6 C69.97 122.09, 49.25 115.76, 29.53 121.6 C7.42 118.05, 2.25 110.29, 0 92.07 C2.68 71.94, 2.24 61.55, 0 29.53 C2.9 14.97, 4.81 0.53, 29.53 0" stroke="none" stroke-width="0" fill="#b2f2bb"></path><path d="M29.53 0 C47.62 2.33, 63.06 0.95, 88.58 0 M29.53 0 C45.72 1.7, 60.22 0.38, 88.58 0 M88.58 0 C105.46 1.08, 119 11, 118.11 29.53 M88.58 0 C106.56 -3.35, 118.35 11.84, 118.11 29.53 M118.11 29.53 C121 46.64, 122.8 67.1, 118.11 92.07 M118.11 29.53 C119.47 43.12, 119.82 60.02, 118.11 92.07 M118.11 92.07 C120.22 108.2, 105.59 121.89, 88.58 121.6 M118.11 92.07 C115.1 113.55, 108.28 123.24, 88.58 121.6 M88.58 121.6 C69.14 121.98, 52.33 119.45, 29.53 121.6 M88.58 121.6 C76.19 123.68, 63.21 121.86, 29.53 121.6 M29.53 121.6 C5.96 123.43, 1.88 108.81, 0 92.07 M29.53 121.6 C7.88 125.1, -0.73 112.39, 0 92.07 M0 92.07 C0.35 76.02, 1.76 54.74, 0 29.53 M0 92.07 C-1.11 80.9, 0 67.92, 0 29.53 M0 29.53 C-2.65 6.64, 11.19 3.28, 29.53 0 M0 29.53 C1.01 6.84, 8.7 3.1, 29.53 0" stroke="#1e1e1e" stroke-width="4" fill="none"></path></g><g stroke-linecap="round" transform="translate(241.99605468841833 78.10737683897605) rotate(0 59.05523793922623 60.7986442596557)"><path d="M29.53 0 C53.57 -4.08, 76.71 0.89, 88.58 0 C110.05 -0.52, 113.02 9.89, 118.11 29.53 C116.96 45.55, 114.01 67.69, 118.11 92.07 C115.39 109.99, 110.93 118.61, 88.58 121.6 C64.89 126.13, 45.88 116.65, 29.53 121.6 C8.76 123.98, 3.58 115.92, 0 92.07 C6.1 79.1, -1.13 64.83, 0 29.53 C2.53 10.74, 14.17 -0.91, 29.53 0" stroke="none" stroke-width="0" fill="#b2f2bb"></path><path d="M29.53 0 C50.06 -0.39, 65.22 -2.78, 88.58 0 M29.53 0 C52.14 0.38, 74.91 0.45, 88.58 0 M88.58 0 C110.33 -2.79, 114.15 12.49, 118.11 29.53 M88.58 0 C105.41 -2.1, 115.83 6.7, 118.11 29.53 M118.11 29.53 C119.69 45.86, 120.26 68.19, 118.11 92.07 M118.11 29.53 C120.46 47.41, 117.81 67.97, 118.11 92.07 M118.11 92.07 C115.96 109.1, 108.63 119.05, 88.58 121.6 M118.11 92.07 C114.01 111.87, 109.59 125.13, 88.58 121.6 M88.58 121.6 C74.64 119.93, 55.83 117.56, 29.53 121.6 M88.58 121.6 C77.57 120.61, 62.35 123.15, 29.53 121.6 M29.53 121.6 C7.74 119.22, -1.63 111.41, 0 92.07 M29.53 121.6 C6.75 122.09, -2.16 108.67, 0 92.07 M0 92.07 C-1.47 79.56, 0.9 65.16, 0 29.53 M0 92.07 C-1.24 77.93, 1.22 64.11, 0 29.53 M0 29.53 C2.48 7.34, 12.8 -3.05, 29.53 0 M0 29.53 C-2.39 8.55, 9.63 -0.59, 29.53 0" stroke="#1e1e1e" stroke-width="4" fill="none"></path></g><g stroke-linecap="round" transform="translate(89.84885784858443 273.31798235278166) rotate(0 59.05523793922623 60.7986442596557)"><path d="M29.53 0 C48.9 2.34, 62.03 -1.21, 88.58 0 C109.04 4.14, 121.33 14.89, 118.11 29.53 C115.34 52.25, 122.03 77.16, 118.11 92.07 C118.94 109.25, 103.64 127.01, 88.58 121.6 C70.07 124.34, 47.23 123.84, 29.53 121.6 C15.19 123.32, 5.1 108.57, 0 92.07 C3.19 71.94, -5 40.49, 0 29.53 C-5.25 10.44, 12.19 2.23, 29.53 0" stroke="none" stroke-width="0" fill="#b2f2bb"></path><path d="M29.53 0 C49.12 -1.12, 70.04 -2.32, 88.58 0 M29.53 0 C50.49 -1.29, 67.77 0.21, 88.58 0 M88.58 0 C109.54 0.3, 114.83 10.93, 118.11 29.53 M88.58 0 C108.49 0.46, 122.33 5.84, 118.11 29.53 M118.11 29.53 C119.42 46.32, 118.53 55.07, 118.11 92.07 M118.11 29.53 C116.29 52.01, 119.87 76.63, 118.11 92.07 M118.11 92.07 C121.68 113.89, 105.94 120.41, 88.58 121.6 M118.11 92.07 C119.65 107.98, 106.66 123.85, 88.58 121.6 M88.58 121.6 C66.71 118.19, 47.88 119.72, 29.53 121.6 M88.58 121.6 C77.91 121.29, 63.42 118.65, 29.53 121.6 M29.53 121.6 C13.32 121.15, -0.52 112.53, 0 92.07 M29.53 121.6 C8.63 121.84, -1.49 115.25, 0 92.07 M0 92.07 C-0.25 79.21, -2.36 60.6, 0 29.53 M0 92.07 C-1.22 69.97, -1.41 45.95, 0 29.53 M0 29.53 C-0.11 10.97, 12 -0.69, 29.53 0 M0 29.53 C-1.85 12.98, 13.27 -1.31, 29.53 0" stroke="#1e1e1e" stroke-width="4" fill="none"></path></g><g stroke-linecap="round" transform="translate(458.2123733379108 272.6308002994738) rotate(0 59.05523793922612 60.7986442596557)"><path d="M29.53 0 C42.53 -5.83, 57.8 1.79, 88.58 0 C111.2 0.57, 115.94 5.47, 118.11 29.53 C118.08 50.48, 118.74 65, 118.11 92.07 C116.53 106.73, 105.23 121.09, 88.58 121.6 C71.67 120.65, 49.99 124.38, 29.53 121.6 C10 122.73, -1.81 113.59, 0 92.07 C-2.89 76.94, -4.27 66.96, 0 29.53 C1.25 11.46, 7.76 -4.07, 29.53 0" stroke="none" stroke-width="0" fill="#b2f2bb"></path><path d="M29.53 0 C51.48 0.44, 69.56 -4.83, 88.58 0 M29.53 0 C46.52 0.26, 58.95 -1.45, 88.58 0 M88.58 0 C104.48 2.31, 117.85 10.81, 118.11 29.53 M88.58 0 C106.63 3.39, 121.18 12.48, 118.11 29.53 M118.11 29.53 C115.36 53.65, 120.94 77.46, 118.11 92.07 M118.11 29.53 C120.5 42.94, 119.61 57.45, 118.11 92.07 M118.11 92.07 C118.36 108.25, 106.43 121.92, 88.58 121.6 M118.11 92.07 C120.7 111.87, 103.71 121.82, 88.58 121.6 M88.58 121.6 C75.02 122.67, 57.47 117.94, 29.53 121.6 M88.58 121.6 C67.62 120.14, 44.88 121.05, 29.53 121.6 M29.53 121.6 C9.42 124.17, 0.24 110.63, 0 92.07 M29.53 121.6 C8.47 118.76, -3.34 107.7, 0 92.07 M0 92.07 C-0.18 76.21, 0.12 54.81, 0 29.53 M0 92.07 C-1.39 67.33, -1.56 43.14, 0 29.53 M0 29.53 C0.79 12.52, 9.03 1.02, 29.53 0 M0 29.53 C-4.25 7.13, 11.03 -0.81, 29.53 0" stroke="#1e1e1e" stroke-width="4" fill="none"></path></g><g stroke-linecap="round" transform="translate(676.9229083290406 274.5226718783333) rotate(0 59.05523793922612 60.7986442596557)"><path d="M29.53 0 C53.44 -1.8, 70.18 2.78, 88.58 0 C109.41 2.11, 122.96 8.37, 118.11 29.53 C113.75 43.27, 114.68 64.73, 118.11 92.07 C120.18 110.75, 107.11 124.87, 88.58 121.6 C73.35 123.04, 50.75 126.47, 29.53 121.6 C9.71 121.6, 1.61 110.08, 0 92.07 C4.06 69.07, -0.91 53.07, 0 29.53 C1.77 10.26, 5.25 1.52, 29.53 0" stroke="none" stroke-width="0" fill="#b2f2bb"></path><path d="M29.53 0 C46.63 -1.25, 71.65 0.95, 88.58 0 M29.53 0 C51.3 2.63, 75.26 3.02, 88.58 0 M88.58 0 C107.15 0.99, 114.77 13.64, 118.11 29.53 M88.58 0 C103.75 -1.47, 118.71 7.55, 118.11 29.53 M118.11 29.53 C114.47 41.32, 118.76 60.47, 118.11 92.07 M118.11 29.53 C118.18 45.09, 115.92 61.83, 118.11 92.07 M118.11 92.07 C115.57 113.36, 107.22 119.73, 88.58 121.6 M118.11 92.07 C122.45 112.3, 111.83 118.08, 88.58 121.6 M88.58 121.6 C70.43 118.62, 45.33 118.33, 29.53 121.6 M88.58 121.6 C72.91 119.28, 55.31 120.71, 29.53 121.6 M29.53 121.6 C13.36 125.33, 3.7 113.06, 0 92.07 M29.53 121.6 C12.69 120.91, -0.46 113.69, 0 92.07 M0 92.07 C-4.59 70.36, 1.49 51.43, 0 29.53 M0 92.07 C0.89 68.33, 1.61 44.76, 0 29.53 M0 29.53 C1.51 10.35, 12.05 -3.55, 29.53 0 M0 29.53 C3.03 10.33, 9.66 -1.55, 29.53 0" stroke="#1e1e1e" stroke-width="4" fill="none"></path></g><g stroke-linecap="round" transform="translate(907.6039850142156 276.338189895715) rotate(0 59.05523793922612 60.7986442596557)"><path d="M29.53 0 C47.92 0.87, 69.27 -1.93, 88.58 0 C112.51 5.06, 117.86 9.8, 118.11 29.53 C121.66 51.04, 122.14 70.2, 118.11 92.07 C113.02 108.94, 108.6 123.31, 88.58 121.6 C65.71 126.12, 49.3 126.12, 29.53 121.6 C15.21 124.76, 3.87 111.03, 0 92.07 C-2.12 70.42, 3.71 46.17, 0 29.53 C-2.41 15.19, 7.93 1.77, 29.53 0" stroke="none" stroke-width="0" fill="#b2f2bb"></path><path d="M29.53 0 C52.41 0.38, 69.08 2.86, 88.58 0 M29.53 0 C49.45 0.97, 73.97 1.55, 88.58 0 M88.58 0 C109.05 -1.95, 115.01 13.18, 118.11 29.53 M88.58 0 C112.03 0.85, 115.59 10.39, 118.11 29.53 M118.11 29.53 C116.58 46.13, 121.04 57.34, 118.11 92.07 M118.11 29.53 C117.15 48.13, 116.36 71.2, 118.11 92.07 M118.11 92.07 C120.4 108.58, 111.3 122.72, 88.58 121.6 M118.11 92.07 C118.76 116.23, 105.48 124.37, 88.58 121.6 M88.58 121.6 C70.22 123.78, 44.32 124.43, 29.53 121.6 M88.58 121.6 C65.05 119.38, 44.8 119.09, 29.53 121.6 M29.53 121.6 C6.54 124.02, 1.32 113.03, 0 92.07 M29.53 121.6 C7.37 125.01, 2.93 110.75, 0 92.07 M0 92.07 C-1.98 67.23, 2.64 42.44, 0 29.53 M0 92.07 C-0.12 71.67, 0.22 51.49, 0 29.53 M0 29.53 C0.57 7.21, 6.03 3.33, 29.53 0 M0 29.53 C-0.37 7.87, 7.11 -0.66, 29.53 0" stroke="#1e1e1e" stroke-width="4" fill="none"></path></g><g stroke-linecap="round" transform="translate(84.55501091939641 528.8733526218957) rotate(0 59.05523793922623 60.7986442596557)"><path d="M29.53 0 C53.66 4.11, 67.61 0.35, 88.58 0 C110.49 -2.74, 116.64 14.93, 118.11 29.53 C119.3 45.95, 116.62 69.34, 118.11 92.07 C115.78 107.85, 106.64 121.89, 88.58 121.6 C65.03 118.19, 44.81 118.58, 29.53 121.6 C7.79 122.96, 1.93 117.35, 0 92.07 C-2.27 70.2, -6.34 55.13, 0 29.53 C-2.9 9.59, 13.84 -1.55, 29.53 0" stroke="none" stroke-width="0" fill="#b2f2bb"></path><path d="M29.53 0 C41.36 -2.55, 64.93 2.65, 88.58 0 M29.53 0 C46.32 -0.01, 64.82 0.05, 88.58 0 M88.58 0 C105.66 2.89, 115.97 13.04, 118.11 29.53 M88.58 0 C105.12 -4.15, 115.2 8.29, 118.11 29.53 M118.11 29.53 C116.06 49.15, 119.87 68.55, 118.11 92.07 M118.11 29.53 C120.9 49.88, 119.84 73.12, 118.11 92.07 M118.11 92.07 C121.77 109.06, 110.55 123.73, 88.58 121.6 M118.11 92.07 C117.44 113.43, 109.42 123.31, 88.58 121.6 M88.58 121.6 C70.39 120.61, 45.17 125.55, 29.53 121.6 M88.58 121.6 C74.15 123.48, 64.47 121.75, 29.53 121.6 M29.53 121.6 C9.26 120.97, -3.85 110.41, 0 92.07 M29.53 121.6 C9.83 117.45, -4.36 113.62, 0 92.07 M0 92.07 C2.74 78.38, -1.04 68.09, 0 29.53 M0 92.07 C0.17 73.4, 2.06 53.19, 0 29.53 M0 29.53 C-3.32 13.37, 11.32 2.34, 29.53 0 M0 29.53 C-1.43 12.32, 10.25 4.11, 29.53 0" stroke="#1e1e1e" stroke-width="4" fill="none"></path></g><g stroke-linecap="round" transform="translate(266.27648723863626 284.49105351582693) rotate(0 67.3608086822951 57.72329247787593)"><path d="M28.86 0 C60.27 -3.63, 82.85 -3.14, 105.86 0 C126.41 -3.63, 136.5 9.23, 134.72 28.86 C135.84 50.88, 140.73 74.73, 134.72 86.58 C136.13 103.71, 125.21 117.55, 105.86 115.45 C91.03 121.77, 72.04 112.61, 28.86 115.45 C6.03 111.82, 0.97 104.5, 0 86.58 C2.45 59.7, -2.89 37.12, 0 28.86 C5.29 5.15, 12.73 -3.8, 28.86 0" stroke="none" stroke-width="0" fill="#ffc9c9"></path><path d="M28.86 0 C43.99 -2.71, 65.53 -2.68, 105.86 0 M28.86 0 C57.81 -0.93, 91.32 0.18, 105.86 0 M105.86 0 C125.03 -0.01, 132.67 13.43, 134.72 28.86 M105.86 0 C120.86 -0.72, 133.77 9.56, 134.72 28.86 M134.72 28.86 C137.89 44.6, 134.01 65.99, 134.72 86.58 M134.72 28.86 C135.42 48.59, 132.92 63.86, 134.72 86.58 M134.72 86.58 C135.32 109.21, 122.71 114.92, 105.86 115.45 M134.72 86.58 C137.37 108.45, 123.54 119.34, 105.86 115.45 M105.86 115.45 C81.36 114.13, 65.33 115.84, 28.86 115.45 M105.86 115.45 C75.8 116.87, 45.87 117.61, 28.86 115.45 M28.86 115.45 C11 111.61, -3.08 109.08, 0 86.58 M28.86 115.45 C7.03 116.77, -1.26 101.76, 0 86.58 M0 86.58 C3.78 72.78, 1.03 62.15, 0 28.86 M0 86.58 C-3 71.98, -1.48 59.41, 0 28.86 M0 28.86 C2.48 6.34, 9.47 2.91, 28.86 0 M0 28.86 C-2.15 6.56, 12.71 -1.83, 28.86 0" stroke="#1e1e1e" stroke-width="4" fill="none"></path></g><g stroke-linecap="round" transform="translate(448.23550797136477 90.10336972018104) rotate(0 67.3608086822951 57.72329247787593)"><path d="M28.86 0 C59.29 5.41, 86.76 1.78, 105.86 0 C120.71 0.52, 134.49 11.25, 134.72 28.86 C138.4 41.15, 130.03 49.28, 134.72 86.58 C129.61 102.66, 124.26 111.9, 105.86 115.45 C91.08 117.65, 72.72 120.15, 28.86 115.45 C5.8 119.72, 1.38 111.31, 0 86.58 C-3.28 67.97, -4.13 53.42, 0 28.86 C-3.74 12.93, 8.08 -2.14, 28.86 0" stroke="none" stroke-width="0" fill="#ffc9c9"></path><path d="M28.86 0 C50.82 -2.31, 72.19 0, 105.86 0 M28.86 0 C57.7 -0.33, 88.43 0.43, 105.86 0 M105.86 0 C126.11 -1.51, 134.8 11.12, 134.72 28.86 M105.86 0 C121.43 3.05, 137.37 11.36, 134.72 28.86 M134.72 28.86 C132.17 48.83, 135.43 73.04, 134.72 86.58 M134.72 28.86 C136.22 49.75, 134.31 72.17, 134.72 86.58 M134.72 86.58 C138.5 102.63, 127.32 112.73, 105.86 115.45 M134.72 86.58 C130.85 107.72, 127.92 119.19, 105.86 115.45 M105.86 115.45 C82.98 116.73, 56.29 119.46, 28.86 115.45 M105.86 115.45 C78.76 115.48, 48.09 114.99, 28.86 115.45 M28.86 115.45 C7.06 118.72, 3.11 108.69, 0 86.58 M28.86 115.45 C8.29 115.09, 4.19 107.74, 0 86.58 M0 86.58 C2.18 71.19, -1.96 52.96, 0 28.86 M0 86.58 C1.14 69.85, 1.41 55.18, 0 28.86 M0 28.86 C0.29 11.51, 6.94 -0.87, 28.86 0 M0 28.86 C-2.27 12.83, 9.89 0.11, 28.86 0" stroke="#1e1e1e" stroke-width="4" fill="none"></path></g><g stroke-linecap="round" transform="translate(696.0791685311347 86.86258522186381) rotate(0 67.3608086822951 57.72329247787593)"><path d="M28.86 0 C55.71 -3.47, 87.91 -4.32, 105.86 0 C124.69 -3.74, 138.03 8.08, 134.72 28.86 C130.25 41.82, 134.85 56.07, 134.72 86.58 C131.23 110.25, 128.41 118.72, 105.86 115.45 C81.71 112.41, 66.49 119.65, 28.86 115.45 C5.39 114.82, 5.31 101.4, 0 86.58 C-1.19 70.37, 1.18 56.85, 0 28.86 C-0.66 4.37, 7.09 0.65, 28.86 0" stroke="none" stroke-width="0" fill="#ffc9c9"></path><path d="M28.86 0 C52.89 4.42, 80.2 2.85, 105.86 0 M28.86 0 C47.96 1, 65.02 -2.56, 105.86 0 M105.86 0 C128.93 1.79, 134.53 9.39, 134.72 28.86 M105.86 0 C128.02 3.01, 130.67 12.54, 134.72 28.86 M134.72 28.86 C131.31 46.64, 137.45 72.65, 134.72 86.58 M134.72 28.86 C136.21 51.15, 134.38 71.58, 134.72 86.58 M134.72 86.58 C133.74 107.9, 127 113.38, 105.86 115.45 M134.72 86.58 C135.82 104.99, 121.65 110.96, 105.86 115.45 M105.86 115.45 C83.96 116.15, 59.44 113.18, 28.86 115.45 M105.86 115.45 C84.55 116.57, 64.5 116.24, 28.86 115.45 M28.86 115.45 C9.38 116.58, 3.77 105.97, 0 86.58 M28.86 115.45 C10.98 111.84, 0.42 105.64, 0 86.58 M0 86.58 C-2.93 71.34, 0.99 46.35, 0 28.86 M0 86.58 C0.75 72.32, -0.07 62.04, 0 28.86 M0 28.86 C-1.49 12.49, 11.77 3.18, 28.86 0 M0 28.86 C4.53 6.48, 13.13 1.13, 28.86 0" stroke="#1e1e1e" stroke-width="4" fill="none"></path></g><g stroke-linecap="round" transform="translate(920.3550297811539 92.97935386921108) rotate(0 67.3608086822951 57.72329247787593)"><path d="M28.86 0 C45.05 -0.81, 63.94 3.34, 105.86 0 C126.01 0.22, 131.06 6.79, 134.72 28.86 C138.88 48.09, 138.92 63.02, 134.72 86.58 C132.71 100.89, 129.96 118.04, 105.86 115.45 C83.87 112.04, 57.02 118.46, 28.86 115.45 C4.6 115.98, -4.67 107.43, 0 86.58 C0.41 78.78, 2.82 66.42, 0 28.86 C-3.36 5.31, 8.18 3.62, 28.86 0" stroke="none" stroke-width="0" fill="#ffc9c9"></path><path d="M28.86 0 C51.65 -0.94, 78.97 1.27, 105.86 0 M28.86 0 C52.02 0.78, 77.31 0.29, 105.86 0 M105.86 0 C126.28 -3.14, 135.09 9.46, 134.72 28.86 M105.86 0 C126.44 -3.99, 130.26 5.09, 134.72 28.86 M134.72 28.86 C131.72 47.94, 132.45 73.72, 134.72 86.58 M134.72 28.86 C133.33 43.95, 135.15 57.77, 134.72 86.58 M134.72 86.58 C138.66 103.1, 128.16 116.43, 105.86 115.45 M134.72 86.58 C139.23 105.08, 126.7 112.33, 105.86 115.45 M105.86 115.45 C86.2 111.8, 69.51 113.37, 28.86 115.45 M105.86 115.45 C84.09 113.83, 65.57 113.51, 28.86 115.45 M28.86 115.45 C7.13 118.61, 2.37 108.16, 0 86.58 M28.86 115.45 C8.32 113.94, -0.62 103.18, 0 86.58 M0 86.58 C-3.53 71.65, 3.28 54.45, 0 28.86 M0 86.58 C-0.33 69.79, 0.52 53.96, 0 28.86 M0 28.86 C-0.47 5.87, 7.81 0.46, 28.86 0 M0 28.86 C-0.09 12.19, 11.91 -4.19, 28.86 0" stroke="#1e1e1e" stroke-width="4" fill="none"></path></g><g stroke-linecap="round" transform="translate(331.42304263805 531.9614299972563) rotate(0 67.3608086822951 57.72329247787593)"><path d="M28.86 0 C58.26 2.14, 75.48 3.94, 105.86 0 C126.77 -5.57, 132.09 12.49, 134.72 28.86 C138.15 46.57, 138.38 50.56, 134.72 86.58 C130.83 108.38, 122.68 118.5, 105.86 115.45 C72.77 122.78, 44.73 115.09, 28.86 115.45 C9.17 116.19, 3.32 101.59, 0 86.58 C2.6 70.16, 5.6 54.33, 0 28.86 C-1.02 8.81, 5.35 -4.65, 28.86 0" stroke="none" stroke-width="0" fill="#ffc9c9"></path><path d="M28.86 0 C62.66 2.76, 91.73 0.03, 105.86 0 M28.86 0 C57.41 -0.83, 85.1 -0.45, 105.86 0 M105.86 0 C129.06 -3.56, 135.99 11.21, 134.72 28.86 M105.86 0 C122.85 -1.21, 138.9 11.73, 134.72 28.86 M134.72 28.86 C131.57 48.93, 132.82 71.57, 134.72 86.58 M134.72 28.86 C136.01 43.94, 133.84 55.08, 134.72 86.58 M134.72 86.58 C132.61 106.72, 123.27 113.98, 105.86 115.45 M134.72 86.58 C135.84 107.41, 129.69 116.07, 105.86 115.45 M105.86 115.45 C76.12 111.43, 51.23 113.07, 28.86 115.45 M105.86 115.45 C81.98 116.62, 59.61 116.15, 28.86 115.45 M28.86 115.45 C13.18 112.95, 2.92 102.87, 0 86.58 M28.86 115.45 C13.83 118.17, -1.13 109.47, 0 86.58 M0 86.58 C4.34 67.55, 4.48 50.1, 0 28.86 M0 86.58 C0.02 71.87, 0.5 56.66, 0 28.86 M0 28.86 C-1.95 9.16, 10.5 -0.77, 28.86 0 M0 28.86 C-0.65 6.37, 7.09 2.67, 28.86 0" stroke="#1e1e1e" stroke-width="4" fill="none"></path></g><g stroke-linecap="round" transform="translate(522.1372717536665 531.1978943824697) rotate(0 67.3608086822951 57.72329247787593)"><path d="M28.86 0 C45.97 0.62, 61.32 1.46, 105.86 0 C120.84 1.3, 129.14 9.72, 134.72 28.86 C137.07 44.09, 138.63 75.11, 134.72 86.58 C138.34 105.29, 128.6 115.39, 105.86 115.45 C83.33 121.2, 65.93 113.11, 28.86 115.45 C5.25 118.49, -0.55 102.01, 0 86.58 C-3.47 68.92, 4.2 58.96, 0 28.86 C3.55 5.77, 9.76 -2.48, 28.86 0" stroke="none" stroke-width="0" fill="#ffc9c9"></path><path d="M28.86 0 C46.33 -2.74, 67.54 2.23, 105.86 0 M28.86 0 C52.8 -1.16, 78.17 1.47, 105.86 0 M105.86 0 C121.88 -0.69, 132.74 12.42, 134.72 28.86 M105.86 0 C128.82 1.7, 135.99 6.99, 134.72 28.86 M134.72 28.86 C136.41 51.76, 132.81 65.78, 134.72 86.58 M134.72 28.86 C134.29 44.12, 134.91 61.68, 134.72 86.58 M134.72 86.58 C131.41 106.35, 121.29 111.66, 105.86 115.45 M134.72 86.58 C134.91 109.02, 128.99 118.45, 105.86 115.45 M105.86 115.45 C75.42 116.6, 47.43 118.45, 28.86 115.45 M105.86 115.45 C88.48 116.72, 73.69 115.46, 28.86 115.45 M28.86 115.45 C10.32 112.81, -1.29 109.72, 0 86.58 M28.86 115.45 C10.47 116.95, -1.29 102.17, 0 86.58 M0 86.58 C1.12 63.45, 0.61 43.76, 0 28.86 M0 86.58 C-0.49 70.13, -1.23 51.83, 0 28.86 M0 28.86 C2.27 11.47, 12.69 2.96, 28.86 0 M0 28.86 C-2.07 9.13, 9.98 -4.06, 28.86 0" stroke="#1e1e1e" stroke-width="4" fill="none"></path></g><g stroke-linecap="round" transform="translate(714.6839863447713 539.9446190363051) rotate(0 67.3608086822951 57.72329247787593)"><path d="M28.86 0 C54.12 -0.95, 72.67 1.33, 105.86 0 C126.64 -1.36, 135.2 5.88, 134.72 28.86 C131.53 50.99, 132.46 71.04, 134.72 86.58 C135.69 110.76, 123.68 117.94, 105.86 115.45 C78.59 115.04, 60.48 113.06, 28.86 115.45 C13.17 114.24, -1.33 108.3, 0 86.58 C-3.23 69.06, -1.34 53.58, 0 28.86 C5.43 11.98, 11.98 -4.51, 28.86 0" stroke="none" stroke-width="0" fill="#ffc9c9"></path><path d="M28.86 0 C46.53 1.44, 58.71 -0.55, 105.86 0 M28.86 0 C58.9 -2.09, 91.01 1.15, 105.86 0 M105.86 0 C121.71 2.08, 131.66 11.19, 134.72 28.86 M105.86 0 C122.03 0.18, 132.34 6.02, 134.72 28.86 M134.72 28.86 C136 45.32, 137.2 60.3, 134.72 86.58 M134.72 28.86 C134.36 48.68, 132.47 73.2, 134.72 86.58 M134.72 86.58 C132.4 106.32, 124.65 115.18, 105.86 115.45 M134.72 86.58 C134.89 102.33, 126.17 110.86, 105.86 115.45 M105.86 115.45 C84.67 117.29, 55.41 118.41, 28.86 115.45 M105.86 115.45 C77.61 115.28, 46.22 114.1, 28.86 115.45 M28.86 115.45 C11.1 114.14, 3.54 106.87, 0 86.58 M28.86 115.45 C7.05 111.86, 2.5 105.37, 0 86.58 M0 86.58 C2.03 70.51, -1.34 62.6, 0 28.86 M0 86.58 C-0.68 65.55, -0.24 48.01, 0 28.86 M0 28.86 C-2.08 8.21, 5.7 -0.71, 28.86 0 M0 28.86 C-1.89 7.13, 8.02 -2.39, 28.86 0" stroke="#1e1e1e" stroke-width="4" fill="none"></path></g><g stroke-linecap="round" transform="translate(905.7630158096745 534.8374141462873) rotate(0 67.3608086822951 57.72329247787593)"><path d="M28.86 0 C46.41 -4.07, 65.93 5.01, 105.86 0 C129.84 -2.44, 131.71 10.47, 134.72 28.86 C136.98 54.26, 131.85 78, 134.72 86.58 C133.08 100.96, 120.21 110.32, 105.86 115.45 C87.85 120.8, 62.1 116.76, 28.86 115.45 C11.61 116.56, 4.06 107.76, 0 86.58 C-1.91 76.41, -0.3 58.08, 0 28.86 C-3.64 4.37, 11.66 3.78, 28.86 0" stroke="none" stroke-width="0" fill="#ffc9c9"></path><path d="M28.86 0 C57.65 1.16, 81.14 0.98, 105.86 0 M28.86 0 C57.87 0.52, 87.85 -1.99, 105.86 0 M105.86 0 C123.98 -0.18, 134.21 13.12, 134.72 28.86 M105.86 0 C125.31 -3.48, 135.68 5.24, 134.72 28.86 M134.72 28.86 C134.28 44.01, 134.68 66.91, 134.72 86.58 M134.72 28.86 C133.64 39.63, 134.57 51.12, 134.72 86.58 M134.72 86.58 C133.46 107.73, 122.97 116.21, 105.86 115.45 M134.72 86.58 C137 106.92, 121.12 118.85, 105.86 115.45 M105.86 115.45 C91.37 117.71, 76.45 112.33, 28.86 115.45 M105.86 115.45 C89.68 115.8, 73.04 117.63, 28.86 115.45 M28.86 115.45 C10.26 118.54, -0.65 107.53, 0 86.58 M28.86 115.45 C6.72 118.94, -3.12 102.23, 0 86.58 M0 86.58 C3.74 71.72, -0.77 59.9, 0 28.86 M0 86.58 C-0.99 72.75, -1.98 60.82, 0 28.86 M0 28.86 C-3.69 8.99, 8.79 -0.05, 28.86 0 M0 28.86 C1.33 8.15, 5.69 4.07, 28.86 0" stroke="#1e1e1e" stroke-width="4" fill="none"></path></g><g stroke-linecap="round" transform="translate(77.77651140590092 776.6661108073467) rotate(0 59.05523793922623 60.7986442596557)"><path d="M29.53 0 C54 -1.84, 68.5 -1.14, 88.58 0 C104.44 1.03, 120.03 8.84, 118.11 29.53 C114.91 49.96, 121.95 72.76, 118.11 92.07 C121.29 109.69, 104.06 124.97, 88.58 121.6 C70.48 116.75, 59.63 123.35, 29.53 121.6 C14.14 120.9, -2.95 107.77, 0 92.07 C-4.11 63.7, 3.44 44.88, 0 29.53 C4.43 7.17, 6.95 4.44, 29.53 0" stroke="none" stroke-width="0" fill="#b2f2bb"></path><path d="M29.53 0 C51.5 3.95, 67.24 0.31, 88.58 0 M29.53 0 C49.14 1.28, 67.56 1.22, 88.58 0 M88.58 0 C104.63 -2.01, 118.35 11.07, 118.11 29.53 M88.58 0 C109.11 0.42, 121.62 6.5, 118.11 29.53 M118.11 29.53 C121.57 54.19, 120.5 73.81, 118.11 92.07 M118.11 29.53 C117.48 54.92, 119.56 79.38, 118.11 92.07 M118.11 92.07 C116.39 115.57, 106.9 122.86, 88.58 121.6 M118.11 92.07 C117.99 108.83, 107.78 118.89, 88.58 121.6 M88.58 121.6 C73.39 124.76, 53.17 121.76, 29.53 121.6 M88.58 121.6 C66.88 123.56, 44.65 123.27, 29.53 121.6 M29.53 121.6 C7.91 118.43, 2.07 108.62, 0 92.07 M29.53 121.6 C7.97 123.9, -2.83 107.53, 0 92.07 M0 92.07 C1.02 81.29, -2.32 65.72, 0 29.53 M0 92.07 C-0.84 74.66, -0.68 54.57, 0 29.53 M0 29.53 C-3.08 13.04, 12.96 3.7, 29.53 0 M0 29.53 C0.4 13.23, 10.97 3.54, 29.53 0" stroke="#1e1e1e" stroke-width="4" fill="none"></path></g><g stroke-linecap="round" transform="translate(75.27381133521158 950.1668536740499) rotate(0 67.3608086822951 57.723292477876385)"><path d="M28.86 0 C42.16 -0.65, 61.95 1.09, 105.86 0 C122.24 -4.64, 135.46 4.28, 134.72 28.86 C139.52 44.37, 139.8 54.73, 134.72 86.58 C138.49 105.2, 125.27 117.62, 105.86 115.45 C76.43 109.55, 57.6 111.85, 28.86 115.45 C11.62 116.43, -3.68 104.03, 0 86.58 C-1.87 59.2, 2.38 45.35, 0 28.86 C-4.75 12.53, 5.33 2.2, 28.86 0" stroke="none" stroke-width="0" fill="#ffc9c9"></path><path d="M28.86 0 C52.57 -1.32, 82.11 -0.34, 105.86 0 M28.86 0 C53.36 -1.56, 76.69 -1.3, 105.86 0 M105.86 0 C125.95 -3.08, 137.45 13.14, 134.72 28.86 M105.86 0 C128.27 4.57, 133.07 5.56, 134.72 28.86 M134.72 28.86 C137.64 55.16, 135.74 69.54, 134.72 86.58 M134.72 28.86 C135.09 40.89, 135.47 54.66, 134.72 86.58 M134.72 86.58 C135.95 103.21, 125.75 118.96, 105.86 115.45 M134.72 86.58 C137.45 110.17, 122.34 111.9, 105.86 115.45 M105.86 115.45 C84.82 117.74, 66.77 118.82, 28.86 115.45 M105.86 115.45 C85.57 113.01, 64.6 114.59, 28.86 115.45 M28.86 115.45 C9.28 117.52, -2.57 106.39, 0 86.58 M28.86 115.45 C8.69 114.66, -3.51 108.57, 0 86.58 M0 86.58 C-0.09 64.45, -2.46 45.17, 0 28.86 M0 86.58 C-0.06 66.23, 2.55 43.81, 0 28.86 M0 28.86 C1.11 7.34, 11.17 3.02, 28.86 0 M0 28.86 C-3.52 10.56, 13.46 -3.2, 28.86 0" stroke="#1e1e1e" stroke-width="4" fill="none"></path></g><g transform="translate(322.3115176349281 789.6462162587213) rotate(0 226.05740197654143 70.53719045284424)"><text x="0" y="98.86492613870605" font-family="Virgil, Segoe UI Emoji" font-size="112.85950472455029px" fill="#1e1e1e" text-anchor="start" style="white-space: pre;" direction="ltr" dominant-baseline="alphabetic">Tracked</text></g><g transform="translate(328.4537374694348 928.024320845233) rotate(0 343.7410583496095 70.53719045284379)"><text x="0" y="98.86492613870605" font-family="Virgil, Segoe UI Emoji" font-size="112.85950472455029px" fill="#1e1e1e" text-anchor="start" style="white-space: pre;" direction="ltr" dominant-baseline="alphabetic">not Tracked</text></g></svg>