<svg version="1.1" xmlns="http://www.w3.org/2000/svg" viewBox="0 0 907.230763252868 1001.7600967333119" width="1814.461526505736" height="2003.5201934666238" filter="invert(93%) hue-rotate(180deg)">
  <!-- svg-source:excalidraw -->
  
  <defs>
    <style class="style-fonts">
      @font-face {
        font-family: "Virgil";
        src: url("https://excalidraw.com/Virgil.woff2");
      }
      @font-face {
        font-family: "Cascadia";
        src: url("https://excalidraw.com/Cascadia.woff2");
      }
      @font-face {
        font-family: "Assistant";
        src: url("https://excalidraw.com/Assistant-Regular.woff2");
      }
    </style>
    
  </defs>
  <g transform="translate(284.70313542330655 161.24086929393616) rotate(0 183.53398716863808 28.492015760333743)"><text x="0" y="39.93440928968377" font-family="Virgil, Segoe UI Emoji" font-size="45.58722521653399px" fill="#f08c00" text-anchor="start" style="white-space: pre;" direction="ltr" dominant-baseline="alphabetic">working directory</text></g><g transform="translate(55.52355859751083 346.93452737367716) rotate(0 81.81607818603516 28.492015760333743)"><text x="0" y="39.93440928968377" font-family="Virgil, Segoe UI Emoji" font-size="45.58722521653399px" fill="#2f9e44" text-anchor="start" style="white-space: pre;" direction="ltr" dominant-baseline="alphabetic">git add</text></g><g transform="translate(306.0271788188886 447.0188416743613) rotate(0 142.98443603515625 28.492015760333743)"><text x="0" y="39.93440928968377" font-family="Virgil, Segoe UI Emoji" font-size="45.58722521653399px" fill="#f08c00" text-anchor="start" style="white-space: pre;" direction="ltr" dominant-baseline="alphabetic">staging area</text></g><g transform="translate(674.2990615927117 543.6786195380655) rotate(0 111.46585083007812 28.492015760333743)"><text x="0" y="39.93440928968377" font-family="Virgil, Segoe UI Emoji" font-size="45.58722521653399px" fill="#2f9e44" text-anchor="start" style="white-space: pre;" direction="ltr" dominant-baseline="alphabetic">git commit</text></g><g transform="translate(391.47790392687534 669.5893072055133) rotate(0 59.569479036367966 32.77890764681297)"><text x="0" y="45.94291695777301" font-family="Virgil, Segoe UI Emoji" font-size="52.44625223490069px" fill="#f08c00" text-anchor="start" style="white-space: pre;" direction="ltr" dominant-baseline="alphabetic">Repo</text></g><g transform="translate(10 792.6367245028496) rotate(0 88.49354553222656 28.492015760333743)"><text x="0" y="39.93440928968377" font-family="Virgil, Segoe UI Emoji" font-size="45.58722521653399px" fill="#2f9e44" text-anchor="start" style="white-space: pre;" direction="ltr" dominant-baseline="alphabetic">git push</text></g><g transform="translate(389.12302673327554 907.0577263811465) rotate(0 82.40943908691406 32.77890764681297)"><text x="0" y="45.94291695777301" font-family="Virgil, Segoe UI Emoji" font-size="52.44625223490069px" fill="#f08c00" text-anchor="start" style="white-space: pre;" direction="ltr" dominant-baseline="alphabetic">Github</text></g><g stroke-linecap="round" transform="translate(249.9168407137106 149.14517883838653) rotate(0 215.82307129249602 46.36139055240119)"><path d="M23.18 0 C120.55 1.69, 217.43 1.81, 408.47 0 M23.18 0 C167.6 -2.15, 314.33 -2.91, 408.47 0 M408.47 0 C420.91 2.38, 432.32 10.2, 431.65 23.18 M408.47 0 C424.21 -2.57, 427.18 4.07, 431.65 23.18 M431.65 23.18 C434.06 29.06, 434.57 39.11, 431.65 69.54 M431.65 23.18 C432.78 37.8, 431.05 53.22, 431.65 69.54 M431.65 69.54 C433.27 83.47, 424.36 89.09, 408.47 92.72 M431.65 69.54 C431.53 86.76, 422.99 90.22, 408.47 92.72 M408.47 92.72 C268.86 90.74, 123.59 91.67, 23.18 92.72 M408.47 92.72 C313.68 89.52, 219.58 89.05, 23.18 92.72 M23.18 92.72 C4.02 90.65, -1.75 84.38, 0 69.54 M23.18 92.72 C4.12 88.45, -3 85.61, 0 69.54 M0 69.54 C-1.32 58.63, 0.33 39.49, 0 23.18 M0 69.54 C0.63 57.39, 0.46 44.46, 0 23.18 M0 23.18 C1.36 5.19, 4.95 -1.39, 23.18 0 M0 23.18 C0.89 12.01, 6.13 1.75, 23.18 0" stroke="#f08c00" stroke-width="4" fill="none"></path></g><g stroke-linecap="round" transform="translate(277.4473480081399 439.77932284084545) rotate(0 168.76009815650968 36.98458680483009)"><path d="M18.49 0 C131.13 2.37, 244.33 0.93, 319.03 0 M18.49 0 C106.76 -4.58, 192.88 -2.57, 319.03 0 M319.03 0 C329.99 2.88, 334.59 9.41, 337.52 18.49 M319.03 0 C326.8 -2.9, 336.32 3.68, 337.52 18.49 M337.52 18.49 C339.73 31.36, 337.86 40.61, 337.52 55.48 M337.52 18.49 C337.26 26.27, 337.56 35.13, 337.52 55.48 M337.52 55.48 C337.2 70.42, 327.56 71.25, 319.03 73.97 M337.52 55.48 C334.06 69.08, 335.74 76.47, 319.03 73.97 M319.03 73.97 C240.41 69.88, 165.59 73.76, 18.49 73.97 M319.03 73.97 C206.43 75.86, 94.24 73.5, 18.49 73.97 M18.49 73.97 C4.6 77.5, 2.7 65.13, 0 55.48 M18.49 73.97 C7.06 70.74, -0.03 72.13, 0 55.48 M0 55.48 C-1.75 46.23, 3.45 30.94, 0 18.49 M0 55.48 C0.73 45.19, -1.25 34.03, 0 18.49 M0 18.49 C3.14 4.85, 9.26 -0.67, 18.49 0 M0 18.49 C4.5 2.48, 8.14 1.17, 18.49 0" stroke="#f08c00" stroke-width="4" fill="none"></path></g><g stroke-linecap="round" transform="translate(328.9170731981251 637.3937841234201) rotate(0 121.1094225084762 53.91407958264972)"><path d="M26.96 0 C72.86 -0.04, 120.8 3.93, 215.26 0 M26.96 0 C92.67 2.35, 153.86 5.45, 215.26 0 M215.26 0 C233.25 -1.95, 241.04 8.83, 242.22 26.96 M215.26 0 C234.24 3.3, 241.63 11.73, 242.22 26.96 M242.22 26.96 C245.14 36.85, 245.08 55.23, 242.22 80.87 M242.22 26.96 C244.5 47.69, 241.4 63.9, 242.22 80.87 M242.22 80.87 C240.39 94.92, 234.35 109.13, 215.26 107.83 M242.22 80.87 C239.19 96.99, 234.7 112.04, 215.26 107.83 M215.26 107.83 C142.67 111.8, 68.84 107.95, 26.96 107.83 M215.26 107.83 C162.06 108.45, 108.55 106.78, 26.96 107.83 M26.96 107.83 C5.42 105.26, 1.63 95.21, 0 80.87 M26.96 107.83 C11.51 109.16, 0.93 96.46, 0 80.87 M0 80.87 C-1.36 68.53, 4.45 53.83, 0 26.96 M0 80.87 C1.35 69.34, -2.01 59.44, 0 26.96 M0 26.96 C-0.46 12.33, 9.08 0.39, 26.96 0 M0 26.96 C2.15 5.41, 12.56 1.74, 26.96 0" stroke="#f08c00" stroke-width="4" fill="none"></path></g><g stroke-linecap="round" transform="translate(311.48935510732395 868.6191350914969) rotate(0 142.1040271256793 61.570480820907505)"><path d="M30.79 0 C92.36 -1.87, 160.02 0.93, 253.42 0 M30.79 0 C76.21 -1.7, 120.8 -1.3, 253.42 0 M253.42 0 C271.86 2.69, 281.26 7.45, 284.21 30.79 M253.42 0 C272.41 -4.43, 286.73 12.43, 284.21 30.79 M284.21 30.79 C288.38 44.82, 285.19 61.31, 284.21 92.36 M284.21 30.79 C281.86 50.55, 282.77 68.52, 284.21 92.36 M284.21 92.36 C286.26 109.89, 276.56 120.56, 253.42 123.14 M284.21 92.36 C284.6 115.57, 271.37 126.48, 253.42 123.14 M253.42 123.14 C177.52 125.32, 98.04 124.18, 30.79 123.14 M253.42 123.14 C193.22 118.73, 131.39 120.93, 30.79 123.14 M30.79 123.14 C11.19 123.19, -0.12 109.68, 0 92.36 M30.79 123.14 C10.34 122.45, 4.35 116.37, 0 92.36 M0 92.36 C-3.64 77.56, -1.77 58.53, 0 30.79 M0 92.36 C-0.34 80.43, -0.66 69.51, 0 30.79 M0 30.79 C3.34 7.22, 12.05 1.27, 30.79 0 M0 30.79 C3.57 7.69, 8.16 1.13, 30.79 0" stroke="#f08c00" stroke-width="4" fill="none"></path></g><g stroke-linecap="round"><g transform="translate(239.68797000230643 193.08661787058918) rotate(0 -62.04023611600371 77.16188275815011)"><path d="M-2.48 -0.51 C-21.91 2.31, -95.73 -6.54, -115.7 19.67 C-135.67 45.87, -121.35 134.46, -122.3 156.7 M1.37 -3.26 C-18.52 1.04, -97.18 -3.83, -117.93 22.13 C-138.68 48.08, -121.46 130.3, -123.14 152.46" stroke="#2f9e44" stroke-width="4" fill="none"></path></g><g transform="translate(239.68797000230643 193.08661787058918) rotate(0 -62.04023611600371 77.16188275815011)"><path d="M-133.5 129.56 C-131.11 138.54, -124.55 146.82, -123.99 151.54 M-132.5 128.87 C-129.7 136.53, -125.97 145.34, -122.88 152.62" stroke="#2f9e44" stroke-width="4" fill="none"></path></g><g transform="translate(239.68797000230643 193.08661787058918) rotate(0 -62.04023611600371 77.16188275815011)"><path d="M-116.43 128.49 C-119.72 137.68, -118.84 146.31, -123.99 151.54 M-115.43 127.81 C-118.26 135.92, -120.16 145.08, -122.88 152.62" stroke="#2f9e44" stroke-width="4" fill="none"></path></g></g><mask></mask><g stroke-linecap="round"><g transform="translate(110.55610316848492 411.9275110588551) rotate(0 78.99006462088391 42.21086865936468)"><path d="M1.73 -1.63 C2.95 10.41, -18.74 60.57, 7.09 74.98 C32.92 89.39, 131.14 83.23, 156.7 84.81 M-0.77 3.66 C1.41 17.23, -13.08 63.67, 12.75 77.75 C38.58 91.83, 130.71 86.58, 154.19 88.13" stroke="#2f9e44" stroke-width="4" fill="none"></path></g><g transform="translate(110.55610316848492 411.9275110588551) rotate(0 78.99006462088391 42.21086865936468)"><path d="M129.48 95.54 C136.33 92.99, 144.64 93.19, 154.22 86.56 M130.11 96.58 C136.05 94.8, 143.68 92.92, 154.63 88.02" stroke="#2f9e44" stroke-width="4" fill="none"></path></g><g transform="translate(110.55610316848492 411.9275110588551) rotate(0 78.99006462088391 42.21086865936468)"><path d="M129.6 78.44 C136.58 80.91, 144.86 86.12, 154.22 86.56 M130.24 79.48 C136.18 82.08, 143.77 84.57, 154.63 88.02" stroke="#2f9e44" stroke-width="4" fill="none"></path></g></g><mask></mask><g stroke-linecap="round"><g transform="translate(627.388606409678 472.47917195403534) rotate(0 96.13780394258447 33.88135485540579)"><path d="M2.07 1.17 C29.58 1.39, 133.41 -11.2, 164.89 0.2 C196.37 11.6, 185.94 58.46, 190.94 69.58 M-0.25 -0.66 C28.18 0.04, 138.85 -7.7, 170.29 3.25 C201.73 14.2, 185.41 54.07, 188.4 65.04" stroke="#2f9e44" stroke-width="4" fill="none"></path></g><g transform="translate(627.388606409678 472.47917195403534) rotate(0 96.13780394258447 33.88135485540579)"><path d="M181.73 39.88 C182.24 47.18, 186.51 56.99, 187.8 63.81 M180.4 41.26 C183.75 48.75, 185.66 58.15, 187.49 64.34" stroke="#2f9e44" stroke-width="4" fill="none"></path></g><g transform="translate(627.388606409678 472.47917195403534) rotate(0 96.13780394258447 33.88135485540579)"><path d="M198.82 40.63 C194.31 47.84, 193.57 57.42, 187.8 63.81 M197.49 42.02 C195.11 49.3, 191.29 58.46, 187.49 64.34" stroke="#2f9e44" stroke-width="4" fill="none"></path></g></g><mask></mask><g stroke-linecap="round"><g transform="translate(803.0886545687715 608.17541148297) rotate(0 -109.9915637029585 44.42746290895229)"><path d="M-0.03 -1.73 C-2.41 12.56, 20.32 71.64, -16.06 86.3 C-52.44 100.96, -184.28 86.8, -218.31 86.2 M-3.49 3.5 C-6.1 17.99, 17.56 75.46, -18.39 88.54 C-54.34 101.62, -185.64 82.61, -219.2 81.98" stroke="#2f9e44" stroke-width="4" fill="none"></path></g><g transform="translate(803.0886545687715 608.17541148297) rotate(0 -109.9915637029585 44.42746290895229)"><path d="M-196.34 75.23 C-202.6 78.12, -204.74 78.3, -219.95 80.05 M-195.47 75.33 C-202.54 77.45, -209.04 78.42, -220.08 82.67" stroke="#2f9e44" stroke-width="4" fill="none"></path></g><g transform="translate(803.0886545687715 608.17541148297) rotate(0 -109.9915637029585 44.42746290895229)"><path d="M-197.72 92.28 C-203.69 91.14, -205.5 87.3, -219.95 80.05 M-196.85 92.37 C-203.35 89.45, -209.44 85.38, -220.08 82.67" stroke="#2f9e44" stroke-width="4" fill="none"></path></g></g><mask></mask><g stroke-linecap="round"><g transform="translate(309.66320681729553 679.5944849192501) rotate(0 -115.03717440822766 55.28470758652384)"><path d="M1.25 2.25 C-33.9 5.07, -174.43 -4.06, -213.35 14.44 C-252.27 32.94, -229.46 97.06, -232.28 113.27 M-1.52 1.01 C-35.63 3.34, -170.9 -7.12, -208.42 10.91 C-245.94 28.95, -223.08 93.31, -226.64 109.21" stroke="#2f9e44" stroke-width="4" fill="none"></path></g><g transform="translate(309.66320681729553 679.5944849192501) rotate(0 -115.03717440822766 55.28470758652384)"><path d="M-235.06 84.36 C-232.78 89.58, -230.66 95.9, -225.83 108.01 M-236.58 87.16 C-233.76 91.59, -232.6 97.07, -225.71 109.05" stroke="#2f9e44" stroke-width="4" fill="none"></path></g><g transform="translate(309.66320681729553 679.5944849192501) rotate(0 -115.03717440822766 55.28470758652384)"><path d="M-217.99 83.28 C-219.36 88.8, -220.89 95.35, -225.83 108.01 M-219.51 86.07 C-221.03 90.7, -224.21 96.45, -225.71 109.05" stroke="#2f9e44" stroke-width="4" fill="none"></path></g></g><mask></mask><g stroke-linecap="round"><g transform="translate(82.00067523020857 862.2174482128657) rotate(0 106.17893170069829 37.305891292385695)"><path d="M-2.14 -0.95 C-0.37 9.64, -27.59 51.81, 7.97 64.71 C43.53 77.62, 177.44 74.84, 211.2 76.49 M1.9 -3.94 C3.74 6.8, -27.47 54.33, 7.01 66.99 C41.49 79.64, 174.91 70.28, 208.77 71.99" stroke="#2f9e44" stroke-width="4" fill="none"></path></g><g transform="translate(82.00067523020857 862.2174482128657) rotate(0 106.17893170069829 37.305891292385695)"><path d="M184.69 82.47 C188.37 78.33, 196.32 76.07, 208.78 73.8 M186 80.57 C194.98 78.07, 203 74.44, 208.04 71.58" stroke="#2f9e44" stroke-width="4" fill="none"></path></g><g transform="translate(82.00067523020857 862.2174482128657) rotate(0 106.17893170069829 37.305891292385695)"><path d="M184.51 65.37 C188.3 64.75, 196.29 66.02, 208.78 73.8 M185.82 63.47 C194.95 67.49, 203.04 70.37, 208.04 71.58" stroke="#2f9e44" stroke-width="4" fill="none"></path></g></g><mask></mask><g transform="translate(357.57011262629044 10) rotate(0 74.18142700195312 28.492015760333743)"><text x="0" y="39.93440928968377" font-family="Virgil, Segoe UI Emoji" font-size="45.58722521653399px" fill="#2f9e44" text-anchor="start" style="white-space: pre;" direction="ltr" dominant-baseline="alphabetic">git init</text></g><g stroke-linecap="round"><g transform="translate(433.6338661231764 73.90705586014974) rotate(0 -0.08947719906586826 32.10197873761763)"><path d="M2.12 0.75 C2.64 11.11, 2.14 50.81, 2.08 61.6 M-0.18 -1.31 C0.28 9.34, 0.86 53.49, 1.07 63.81" stroke="#2f9e44" stroke-width="4" fill="none"></path></g><g transform="translate(433.6338661231764 73.90705586014974) rotate(0 -0.08947719906586826 32.10197873761763)"><path d="M-7.33 42.07 C-7.44 47.9, -2.36 53.33, 1.52 61.84 M-7.26 41.38 C-5.49 49.57, -2.42 57.53, 1.78 63.62" stroke="#2f9e44" stroke-width="4" fill="none"></path></g><g transform="translate(433.6338661231764 73.90705586014974) rotate(0 -0.08947719906586826 32.10197873761763)"><path d="M9.77 41.79 C5.19 47.82, 5.8 53.32, 1.52 61.84 M9.84 41.1 C5.54 49.48, 2.53 57.54, 1.78 63.62" stroke="#2f9e44" stroke-width="4" fill="none"></path></g></g><mask></mask></svg>